<?xml version="1.0" encoding="iso-8859-1"?>
<!-- Generator: Adobe Illustrator 16.0.0, SVG Export Plug-In . SVG Version: 6.00 Build 0)  -->
<!DOCTYPE svg PUBLIC "-//W3C//DTD SVG 1.1//EN" "http://www.w3.org/Graphics/SVG/1.1/DTD/svg11.dtd">
<svg version="1.1" id="Layer_1" xmlns="http://www.w3.org/2000/svg" xmlns:xlink="http://www.w3.org/1999/xlink" x="0px" y="0px"
	 width="616px" height="142px" viewBox="0 0 616 142" style="enable-background:new 0 0 616 142;" xml:space="preserve">
<text transform="matrix(1 0 0 1 31 -85)" style="font-family:'Lobster-Regular'; font-size:100;">Song n&#x2019;Music</text>
<g>
	<path d="M205.166-85.628c0,0,6.29,1.479,17.396,3.646c11.107,2.148,26.998,5.106,46.17,7.917
		c9.585,1.405,19.987,2.786,31.006,4.048c11.02,1.256,22.65,2.445,34.698,3.387c24.092,1.877,49.842,2.986,75.518,2.479
		c12.835-0.266,25.644-1.043,38.173-2.292c12.527-1.273,24.785-2.879,36.551-4.811c11.778-1.867,23.069-4.076,33.675-6.567
		c10.6-2.515,20.492-5.383,29.478-8.471c8.979-3.1,17.093-6.342,24.085-9.675c1.777-0.781,3.424-1.669,5.059-2.457
		c0.813-0.403,1.612-0.798,2.396-1.187c0.767-0.417,1.519-0.827,2.256-1.228c1.486-0.794,2.911-1.556,4.273-2.284
		c1.332-0.783,2.601-1.529,3.807-2.238c2.435-1.395,4.535-2.755,6.379-3.93c0.922-0.59,1.776-1.136,2.558-1.636
		c0.764-0.527,1.458-1.006,2.079-1.435c2.508-1.711,3.846-2.623,3.846-2.623l0.866,0.97c0,0-1.127,1.185-3.24,3.406
		c-0.534,0.554-1.13,1.173-1.787,1.854c-0.69,0.644-1.444,1.347-2.258,2.106c-1.638,1.513-3.492,3.308-5.748,5.091
		c-4.36,3.785-10.058,7.874-16.829,12.253c-1.708,1.066-3.485,2.149-5.327,3.246c-1.874,1.037-3.802,2.104-5.781,3.199
		c-3.994,2.12-8.241,4.289-12.792,6.273c-9.065,4.058-19.181,7.789-30.088,10.966c-10.898,3.209-22.601,5.804-34.792,7.743
		c-12.203,1.887-24.899,3.007-37.786,3.581c-12.888,0.583-25.967,0.724-39.019,0.546c-13.053-0.189-26.08-0.776-38.87-1.667
		c-12.792-0.863-25.337-2.154-37.44-3.61c-12.101-1.475-23.769-3.085-34.783-4.908c-11.016-1.802-21.395-3.693-30.946-5.566
		c-19.098-3.778-34.9-7.411-45.891-10.236c-10.998-2.794-17.223-4.633-17.223-4.633L205.166-85.628z"/>
</g>
<g>
	<path style="fill:#FFFFFF;" d="M86.273,34.477c0,1.4-0.188,2.678-0.562,3.833c-0.375,1.156-0.887,2.148-1.538,2.979
		c-0.651,0.83-1.449,1.473-2.393,1.929c-0.944,0.456-1.97,0.684-3.076,0.684c-1.27,0-2.417-0.269-3.442-0.806
		s-1.913-1.31-2.661-2.319c1.237-0.911,2.229-2.124,2.979-3.638c0.749-1.514,1.123-3.133,1.123-4.858
		c0-2.148-0.635-3.849-1.904-5.103c-1.27-1.253-3.011-1.88-5.225-1.88c-1.335,0-2.563,0.252-3.687,0.757
		c-1.123,0.505-2.083,1.205-2.881,2.1c-0.798,0.896-1.416,1.961-1.855,3.198c-0.439,1.237-0.659,2.588-0.659,4.053
		c0,2.214,0.537,4.297,1.611,6.25s2.425,3.874,4.053,5.762c1.627,1.888,3.385,3.801,5.273,5.737
		c1.888,1.937,3.646,4.004,5.273,6.201c1.627,2.197,2.979,4.574,4.053,7.129c1.074,2.556,1.611,5.379,1.611,8.472
		c0,3.288-0.684,6.323-2.051,9.106s-3.264,5.192-5.688,7.227c-2.425,2.035-5.273,3.63-8.545,4.785s-6.812,1.733-10.62,1.733
		c-3.19,0-6.079-0.415-8.667-1.245s-4.802-2.018-6.641-3.564c-1.839-1.546-3.264-3.394-4.272-5.542
		c-1.009-2.148-1.514-4.541-1.514-7.178c0-2.213,0.358-4.28,1.074-6.201c0.716-1.92,1.692-3.589,2.93-5.005
		c1.237-1.416,2.702-2.531,4.395-3.345c1.692-0.813,3.499-1.221,5.42-1.221c2.344,0,4.313,0.586,5.908,1.758
		c1.595,1.172,2.588,2.783,2.979,4.834c-1.758,0-3.337,0.244-4.736,0.732c-1.4,0.488-2.588,1.172-3.564,2.051
		s-1.733,1.945-2.271,3.198c-0.537,1.253-0.806,2.661-0.806,4.224c0,2.93,0.854,5.249,2.563,6.958s4.012,2.563,6.909,2.563
		c1.758,0,3.385-0.317,4.883-0.952c1.497-0.635,2.783-1.505,3.857-2.612c1.074-1.106,1.92-2.425,2.539-3.955
		c0.618-1.53,0.928-3.19,0.928-4.98c0-1.823-0.301-3.572-0.903-5.249c-0.603-1.676-1.408-3.304-2.417-4.883
		c-1.009-1.579-2.148-3.133-3.418-4.663c-1.27-1.53-2.572-3.068-3.906-4.614c-1.335-1.546-2.637-3.101-3.906-4.663
		s-2.409-3.166-3.418-4.81c-1.009-1.644-1.815-3.345-2.417-5.103c-0.603-1.758-0.903-3.613-0.903-5.566
		c0-2.637,0.562-5.07,1.685-7.3c1.123-2.229,2.686-4.158,4.688-5.786c2.002-1.627,4.37-2.905,7.104-3.833s5.713-1.392,8.936-1.392
		c2.702,0,5.143,0.334,7.324,1.001c2.181,0.667,4.044,1.611,5.591,2.832c1.546,1.221,2.742,2.694,3.589,4.419
		C85.85,30.44,86.273,32.361,86.273,34.477z"/>
	<path style="fill:#FFFFFF;" d="M144.184,58.012c-1.953,2.051-4.476,3.792-7.568,5.225c-3.093,1.433-6.478,2.458-10.156,3.076
		c-0.391,4.623-1.278,8.789-2.661,12.5c-1.384,3.711-3.133,6.869-5.249,9.473c-2.116,2.604-4.541,4.606-7.275,6.006
		c-2.734,1.4-5.632,2.1-8.691,2.1c-2.312,0-4.452-0.285-6.421-0.854c-1.97-0.569-3.662-1.481-5.078-2.734
		c-1.416-1.253-2.523-2.881-3.32-4.883s-1.196-4.435-1.196-7.3c0-1.953,0.204-4.175,0.61-6.665c0.407-2.49,1.058-5.054,1.953-7.69
		c0.895-2.637,2.051-5.216,3.467-7.739c1.416-2.522,3.141-4.777,5.176-6.763c2.034-1.985,4.386-3.589,7.056-4.81
		c2.669-1.221,5.713-1.831,9.131-1.831c8.561,0,12.842,5.322,12.842,15.967v0.098c0.163,0.065,0.317,0.098,0.464,0.098
		s0.35,0,0.61,0c1.172,0,2.433-0.171,3.784-0.513c1.351-0.342,2.71-0.789,4.077-1.343c1.367-0.553,2.702-1.196,4.004-1.929
		c1.302-0.732,2.49-1.473,3.564-2.222L144.184,58.012z M118.158,66.605c-1.042-0.26-1.75-0.773-2.124-1.538
		c-0.375-0.765-0.562-1.652-0.562-2.661c0-1.399,0.285-2.547,0.854-3.442c0.569-0.895,1.326-1.554,2.271-1.978
		c-0.065-1.074-0.179-1.978-0.342-2.71c-0.163-0.732-0.391-1.334-0.684-1.807c-0.293-0.472-0.659-0.806-1.099-1.001
		s-1.001-0.293-1.685-0.293c-1.205,0-2.36,0.464-3.467,1.392c-1.107,0.928-2.157,2.157-3.149,3.687
		c-0.993,1.53-1.904,3.28-2.734,5.249c-0.83,1.97-1.538,3.996-2.124,6.079c-0.586,2.083-1.042,4.143-1.367,6.177
		c-0.326,2.035-0.488,3.882-0.488,5.542s0.089,3.011,0.269,4.053c0.179,1.042,0.472,1.864,0.879,2.466
		c0.407,0.603,0.936,1.018,1.587,1.245c0.651,0.228,1.448,0.342,2.393,0.342c1.204,0,2.417-0.537,3.638-1.611
		s2.352-2.539,3.394-4.395c1.042-1.855,1.961-4.053,2.759-6.592C117.173,72.27,117.768,69.535,118.158,66.605z"/>
	<path style="fill:#FFFFFF;" d="M186.566,78.08c-1.4,4.102-2.905,7.373-4.517,9.814s-3.239,4.305-4.883,5.591
		c-1.644,1.286-3.255,2.124-4.834,2.515c-1.579,0.391-3.036,0.586-4.37,0.586c-2.214,0-4.069-0.317-5.566-0.952
		c-1.498-0.635-2.702-1.481-3.613-2.539c-0.912-1.058-1.571-2.262-1.978-3.613c-0.407-1.351-0.61-2.742-0.61-4.175
		c0-1.692,0.236-3.67,0.708-5.933c0.472-2.262,0.984-4.582,1.538-6.958c0.553-2.376,1.066-4.671,1.538-6.885
		c0.472-2.213,0.708-4.118,0.708-5.713c0-3.418-1.205-5.127-3.613-5.127c-0.912,0-1.758,0.244-2.539,0.732s-1.498,1.147-2.148,1.978
		c-0.651,0.83-1.237,1.807-1.758,2.93c-0.521,1.123-0.977,2.319-1.367,3.589L142.475,96H128.07l10.596-50h14.404l-1.074,5.176
		c1.074-1.204,2.14-2.173,3.198-2.905c1.058-0.732,2.091-1.294,3.101-1.685c1.009-0.391,1.961-0.651,2.856-0.781
		c0.895-0.13,1.733-0.195,2.515-0.195c1.595,0,3.076,0.212,4.443,0.635c1.367,0.423,2.547,1.091,3.54,2.002
		c0.993,0.912,1.766,2.083,2.319,3.516c0.553,1.433,0.83,3.142,0.83,5.127c0,1.335-0.122,2.775-0.366,4.321
		c-0.244,1.546-0.545,3.125-0.903,4.736c-0.358,1.611-0.741,3.215-1.147,4.81c-0.407,1.595-0.79,3.125-1.147,4.59
		c-0.358,1.465-0.659,2.824-0.903,4.077c-0.244,1.253-0.366,2.352-0.366,3.296c0,1.237,0.285,2.246,0.854,3.027
		c0.569,0.781,1.619,1.172,3.149,1.172c1.074,0,2.018-0.211,2.832-0.635c0.813-0.423,1.546-1.025,2.197-1.807
		c0.651-0.781,1.245-1.717,1.782-2.808c0.537-1.09,1.066-2.287,1.587-3.589H186.566z"/>
	<path style="fill:#FFFFFF;" d="M206.391,91.02c-0.749,0.781-1.546,1.506-2.393,2.173c-0.847,0.667-1.766,1.253-2.759,1.758
		c-0.993,0.505-2.059,0.903-3.198,1.196c-1.14,0.293-2.36,0.439-3.662,0.439c-1.726,0-3.386-0.277-4.98-0.83
		c-1.595-0.553-3.011-1.465-4.248-2.734c-1.237-1.27-2.23-2.93-2.979-4.98s-1.123-4.557-1.123-7.52c0-2.278,0.228-4.72,0.684-7.324
		c0.456-2.604,1.155-5.208,2.1-7.813c0.944-2.604,2.124-5.103,3.54-7.495s3.076-4.508,4.98-6.348
		c1.904-1.839,4.061-3.304,6.47-4.395c2.409-1.09,5.062-1.636,7.959-1.636c2.832,0,4.891,0.488,6.177,1.465
		c1.286,0.977,1.929,2.181,1.929,3.613v0.195L215.863,46h14.502l-12.207,58.008c-0.716,3.58-1.766,6.478-3.149,8.691
		c-1.384,2.213-2.914,3.938-4.59,5.176c-1.677,1.236-3.435,2.066-5.273,2.49c-1.839,0.423-3.573,0.635-5.2,0.635
		c-1.498,0-2.954-0.261-4.37-0.781c-1.416-0.521-2.669-1.254-3.76-2.197c-1.091-0.944-1.97-2.075-2.637-3.394
		c-0.667-1.318-1.001-2.792-1.001-4.419c0-2.344,0.447-4.313,1.343-5.908c0.895-1.596,2.124-2.946,3.687-4.053
		c1.563-1.107,3.394-2.043,5.493-2.808c2.1-0.765,4.354-1.505,6.763-2.222L206.391,91.02z M204.779,98.393
		c-1.563,0.521-3.027,1.106-4.395,1.758c-1.367,0.65-2.547,1.392-3.54,2.222c-0.993,0.83-1.774,1.773-2.344,2.832
		c-0.57,1.058-0.854,2.254-0.854,3.589c0,0.391,0.098,0.781,0.293,1.172s0.472,0.74,0.83,1.05c0.358,0.309,0.781,0.569,1.27,0.781
		c0.488,0.211,1.025,0.317,1.611,0.317c0.521,0,1.066-0.122,1.636-0.366c0.569-0.244,1.115-0.668,1.636-1.27
		c0.521-0.603,1.009-1.408,1.465-2.417c0.456-1.01,0.846-2.263,1.172-3.76L204.779,98.393z M213.959,55.18
		c-0.065-0.325-0.171-0.684-0.317-1.074s-0.366-0.765-0.659-1.123c-0.293-0.358-0.692-0.659-1.196-0.903
		c-0.505-0.244-1.147-0.366-1.929-0.366c-1.4,0-2.727,0.456-3.979,1.367c-1.253,0.912-2.401,2.124-3.442,3.638
		c-1.042,1.514-1.97,3.231-2.783,5.151c-0.814,1.921-1.506,3.898-2.075,5.933c-0.57,2.035-1.001,4.037-1.294,6.006
		c-0.293,1.97-0.439,3.735-0.439,5.298c0,1.921,0.179,3.402,0.537,4.443c0.358,1.042,0.789,1.815,1.294,2.319
		c0.504,0.505,1.05,0.806,1.636,0.903s1.106,0.146,1.563,0.146c0.684,0,1.408-0.154,2.173-0.464
		c0.765-0.309,1.521-0.773,2.271-1.392c0.749-0.618,1.432-1.399,2.051-2.344c0.618-0.944,1.123-2.051,1.514-3.32L213.959,55.18z"/>
	<path style="fill:#FFFFFF;" d="M248.236,96l10.596-50h14.404l-1.074,5.176c1.074-1.204,2.14-2.173,3.198-2.905
		c1.058-0.732,2.091-1.294,3.101-1.685c1.009-0.391,1.961-0.651,2.856-0.781c0.895-0.13,1.733-0.195,2.515-0.195
		c1.595,0,3.076,0.212,4.443,0.635c1.367,0.423,2.547,1.091,3.54,2.002c0.993,0.912,1.766,2.083,2.319,3.516
		c0.553,1.433,0.83,3.142,0.83,5.127c0,1.335-0.122,2.775-0.366,4.321c-0.244,1.546-0.545,3.125-0.903,4.736
		c-0.358,1.611-0.741,3.215-1.147,4.81c-0.407,1.595-0.79,3.125-1.147,4.59c-0.358,1.465-0.659,2.824-0.903,4.077
		c-0.244,1.253-0.366,2.352-0.366,3.296c0,1.237,0.285,2.246,0.854,3.027c0.569,0.781,1.619,1.172,3.149,1.172
		c1.66,0,2.767-0.211,3.32-0.635c-0.228,1.823-0.684,3.377-1.367,4.663c-0.684,1.286-1.514,2.352-2.49,3.198
		c-0.977,0.847-2.083,1.465-3.32,1.855c-1.237,0.391-2.507,0.586-3.809,0.586c-1.921,0-3.532-0.317-4.834-0.952
		c-1.302-0.635-2.344-1.481-3.125-2.539c-0.781-1.058-1.335-2.262-1.66-3.613c-0.326-1.351-0.488-2.742-0.488-4.175
		c0-1.692,0.236-3.67,0.708-5.933c0.472-2.262,0.984-4.582,1.538-6.958c0.553-2.376,1.066-4.671,1.538-6.885
		c0.472-2.213,0.708-4.118,0.708-5.713c0-3.418-1.205-5.127-3.613-5.127c-0.912,0-1.758,0.244-2.539,0.732s-1.498,1.147-2.148,1.978
		c-0.651,0.83-1.237,1.807-1.758,2.93c-0.521,1.123-0.977,2.319-1.367,3.589L262.641,96H248.236z"/>
	<path style="fill:#FFFFFF;" d="M308.344,27.787c0-1.009,0.171-1.945,0.513-2.808c0.342-0.862,0.806-1.603,1.392-2.222
		c0.586-0.618,1.286-1.099,2.1-1.44c0.813-0.342,1.709-0.513,2.686-0.513c1.009,0,1.945,0.171,2.808,0.513
		c0.862,0.342,1.611,0.822,2.246,1.44c0.635,0.619,1.123,1.359,1.465,2.222c0.342,0.863,0.513,1.799,0.513,2.808
		c0,1.27-0.277,2.637-0.83,4.102c-0.554,1.465-1.343,2.93-2.368,4.395s-2.271,2.914-3.735,4.346
		c-1.465,1.433-3.125,2.751-4.98,3.955l-1.514-1.465c1.432-1.465,2.547-2.832,3.345-4.102c0.797-1.27,1.196-2.311,1.196-3.125
		c0-0.651-0.252-1.196-0.757-1.636c-0.505-0.439-1.058-0.919-1.66-1.44c-0.603-0.521-1.156-1.164-1.66-1.929
		C308.596,30.123,308.344,29.089,308.344,27.787z"/>
	<path style="fill:#FFFFFF;" d="M373.578,96l6.396-44.922L361.176,96h-13.721l2.002-45.117L332.758,96h-8.008l25.391-68.701
		c-4.98,1.66-8.871,4.387-11.67,8.179c-2.8,3.792-4.199,8.569-4.199,14.331c0,1.335,0.073,2.401,0.22,3.198
		c0.146,0.798,0.301,1.433,0.464,1.904c0.162,0.472,0.317,0.83,0.464,1.074s0.22,0.48,0.22,0.708c-1.628,0-3.101-0.163-4.419-0.488
		c-1.318-0.325-2.441-0.846-3.369-1.563c-0.928-0.716-1.645-1.652-2.148-2.808c-0.505-1.155-0.757-2.563-0.757-4.224
		c0-2.116,0.431-4.248,1.294-6.396c0.862-2.148,2.051-4.207,3.564-6.177c1.514-1.969,3.296-3.809,5.347-5.518
		s4.256-3.198,6.616-4.468c2.359-1.27,4.817-2.262,7.373-2.979c2.555-0.716,5.103-1.074,7.642-1.074
		c2.506,0,5.029,0.472,7.568,1.416l-2.295,52.686l22.021-52.686h14.404L387.982,96H373.578z"/>
	<path style="fill:#FFFFFF;" d="M451.459,78.08c-0.944,2.702-1.97,5.046-3.076,7.031c-1.107,1.986-2.255,3.662-3.442,5.029
		c-1.188,1.367-2.401,2.474-3.638,3.32c-1.237,0.847-2.441,1.498-3.613,1.953c-1.172,0.456-2.295,0.765-3.369,0.928
		c-1.074,0.163-2.051,0.244-2.93,0.244c-2.865,0-5.144-0.789-6.836-2.368c-1.693-1.579-2.719-3.947-3.076-7.104
		c-1.27,2.051-2.556,3.695-3.857,4.932c-1.303,1.237-2.588,2.197-3.857,2.881s-2.507,1.131-3.711,1.343
		c-1.205,0.211-2.328,0.317-3.369,0.317c-1.498,0-2.897-0.228-4.199-0.684c-1.303-0.456-2.434-1.172-3.394-2.148
		c-0.961-0.977-1.718-2.213-2.271-3.711c-0.553-1.497-0.83-3.304-0.83-5.42c0-0.911,0.065-1.912,0.195-3.003
		c0.131-1.09,0.326-2.271,0.586-3.54L403.559,46h14.404l-7.178,33.984c-0.195,1.042-0.293,1.986-0.293,2.832
		c0,1.14,0.211,2.108,0.635,2.905c0.423,0.798,1.204,1.196,2.344,1.196c0.977,0,1.871-0.22,2.686-0.659
		c0.813-0.439,1.554-1.05,2.222-1.831c0.667-0.781,1.253-1.717,1.758-2.808c0.504-1.09,0.952-2.271,1.343-3.54L428.266,46h14.404
		l-7.178,33.984c-0.163,0.554-0.277,1.099-0.342,1.636c-0.065,0.537-0.098,1.066-0.098,1.587c0,1.4,0.333,2.368,1.001,2.905
		c0.667,0.537,1.7,0.806,3.101,0.806c0.977,0,1.88-0.22,2.71-0.659s1.587-1.05,2.271-1.831s1.285-1.717,1.807-2.808
		c0.521-1.09,0.96-2.271,1.318-3.54H451.459z"/>
	<path style="fill:#FFFFFF;" d="M489.643,78.08c-2.604,3.027-5.217,5.526-7.837,7.495c-2.621,1.97-5.103,3.638-7.446,5.005
		c-1.042,1.107-2.206,2.043-3.491,2.808c-1.286,0.765-2.621,1.384-4.004,1.855c-1.384,0.472-2.783,0.813-4.199,1.025
		c-1.416,0.211-2.759,0.317-4.028,0.317c-2.507,0-4.68-0.383-6.519-1.147c-1.84-0.765-3.361-1.758-4.565-2.979
		s-2.091-2.588-2.661-4.102c-0.569-1.514-0.854-3.035-0.854-4.565c0-1.172,0.155-2.254,0.464-3.247
		c0.31-0.993,0.708-1.88,1.196-2.661s1.05-1.457,1.685-2.026c0.635-0.569,1.294-1.017,1.978-1.343
		c2.799-5.013,5.159-9.969,7.08-14.868c1.92-4.899,3.662-9.822,5.225-14.771l14.795-1.953c0.195,4.33,0.382,8.081,0.562,11.255
		c0.179,3.174,0.35,5.925,0.513,8.252c0.162,2.328,0.309,4.305,0.439,5.933c0.13,1.628,0.252,3.068,0.366,4.321
		c0.113,1.253,0.195,2.393,0.244,3.418s0.073,2.092,0.073,3.198c0,0.749-0.024,1.433-0.073,2.051
		c-0.049,0.619-0.155,1.205-0.317,1.758c1.465-0.846,2.791-1.685,3.979-2.515c1.188-0.83,2.254-1.668,3.198-2.515H489.643z
		 M449.359,81.693c0,2.344,0.464,4.094,1.392,5.249c0.928,1.156,2.498,1.733,4.712,1.733c1.106,0,2.181-0.154,3.223-0.464
		c1.041-0.309,1.969-0.83,2.783-1.563c0.813-0.732,1.465-1.685,1.953-2.856s0.732-2.637,0.732-4.395
		c0-0.846-0.024-1.668-0.073-2.466c-0.049-0.797-0.106-1.644-0.171-2.539c-0.065-0.895-0.155-1.896-0.269-3.003
		c-0.114-1.106-0.244-2.393-0.391-3.857s-0.302-3.157-0.464-5.078c-0.163-1.92-0.342-4.167-0.537-6.738
		c-1.01,3.255-2.197,6.413-3.564,9.473c-1.367,3.06-2.881,6.201-4.541,9.424c0.65,0.358,1.196,0.814,1.636,1.367
		c0.439,0.554,0.659,1.253,0.659,2.1c0,0.619-0.098,1.221-0.293,1.807s-0.488,1.115-0.879,1.587
		c-0.391,0.472-0.854,0.847-1.392,1.123c-0.537,0.277-1.147,0.415-1.831,0.415c-0.554,0-1.074-0.081-1.563-0.244
		C449.994,82.605,449.619,82.247,449.359,81.693z"/>
	<path style="fill:#FFFFFF;" d="M516.352,78.08c-0.944,2.702-1.994,5.046-3.149,7.031c-1.156,1.986-2.36,3.662-3.613,5.029
		c-1.254,1.367-2.539,2.474-3.857,3.32c-1.318,0.847-2.597,1.498-3.833,1.953c-1.237,0.456-2.417,0.765-3.54,0.928
		c-1.123,0.163-2.124,0.244-3.003,0.244c-1.498,0-2.897-0.228-4.199-0.684c-1.303-0.456-2.434-1.172-3.394-2.148
		c-0.961-0.977-1.718-2.213-2.271-3.711c-0.553-1.497-0.83-3.304-0.83-5.42c0-0.911,0.065-1.912,0.195-3.003
		c0.131-1.09,0.326-2.271,0.586-3.54L492.23,46h14.404l-7.178,33.984c-0.163,0.554-0.269,1.099-0.317,1.636
		s-0.073,1.066-0.073,1.587c0,1.4,0.325,2.368,0.977,2.905c0.65,0.537,1.676,0.806,3.076,0.806c0.977,0,1.929-0.22,2.856-0.659
		s1.782-1.05,2.563-1.831s1.48-1.717,2.1-2.808c0.618-1.09,1.123-2.271,1.514-3.54H516.352z M510.15,32.719
		c0,1.107-0.212,2.141-0.635,3.101c-0.424,0.96-1.001,1.791-1.733,2.49c-0.732,0.7-1.579,1.253-2.539,1.66
		c-0.961,0.407-1.994,0.61-3.101,0.61c-1.107,0-2.141-0.203-3.101-0.61c-0.961-0.407-1.799-0.96-2.515-1.66
		c-0.717-0.7-1.278-1.53-1.685-2.49c-0.407-0.96-0.61-1.994-0.61-3.101c0-1.106,0.203-2.14,0.61-3.101
		c0.406-0.96,0.968-1.807,1.685-2.539c0.716-0.732,1.554-1.31,2.515-1.733c0.96-0.423,1.993-0.635,3.101-0.635
		c1.106,0,2.14,0.212,3.101,0.635c0.96,0.423,1.807,1.001,2.539,1.733s1.31,1.579,1.733,2.539
		C509.938,30.579,510.15,31.612,510.15,32.719z"/>
	<path style="fill:#FFFFFF;" d="M542.963,81.791c-0.521,2.897-1.335,5.29-2.441,7.178c-1.107,1.888-2.426,3.402-3.955,4.541
		c-1.53,1.14-3.231,1.937-5.103,2.393c-1.872,0.456-3.817,0.684-5.835,0.684c-2.312,0-4.419-0.301-6.323-0.903
		s-3.532-1.538-4.883-2.808c-1.352-1.27-2.4-2.905-3.149-4.907c-0.748-2.002-1.123-4.419-1.123-7.251
		c0-1.92,0.195-4.142,0.586-6.665c0.391-2.522,1.018-5.103,1.88-7.739s1.985-5.225,3.369-7.764c1.383-2.539,3.067-4.801,5.054-6.787
		c1.985-1.985,4.305-3.589,6.958-4.81c2.652-1.221,5.672-1.831,9.058-1.831c2.181,0,3.987,0.261,5.42,0.781
		c1.432,0.521,2.571,1.221,3.418,2.1c0.846,0.879,1.432,1.872,1.758,2.979c0.325,1.107,0.488,2.246,0.488,3.418
		c0,1.27-0.146,2.36-0.439,3.271c-0.293,0.912-0.684,1.652-1.172,2.222c-0.488,0.57-1.05,0.993-1.685,1.27
		c-0.635,0.277-1.294,0.415-1.978,0.415c-1.237,0-2.409-0.391-3.516-1.172c0.391-1.042,0.691-2.051,0.903-3.027
		c0.211-0.977,0.317-1.937,0.317-2.881c0-1.204-0.22-2.189-0.659-2.954c-0.439-0.765-1.132-1.147-2.075-1.147
		c-1.074,0-2.133,0.48-3.174,1.44c-1.042,0.96-2.043,2.222-3.003,3.784c-0.961,1.563-1.848,3.353-2.661,5.371
		c-0.814,2.019-1.522,4.085-2.124,6.201c-0.603,2.116-1.074,4.199-1.416,6.25s-0.513,3.906-0.513,5.566
		c0,1.563,0.146,2.881,0.439,3.955s0.708,1.929,1.245,2.563s1.172,1.091,1.904,1.367c0.732,0.277,1.538,0.415,2.417,0.415
		c0.977,0,2.002-0.163,3.076-0.488c1.074-0.325,2.148-0.757,3.223-1.294s2.1-1.131,3.076-1.782
		C541.303,83.093,542.182,82.442,542.963,81.791z"/>
</g>
<g>
	<path style="fill:#FFFFFF;" d="M205.166,95.372c0,0,6.29,1.479,17.396,3.646c11.107,2.148,26.998,5.106,46.17,7.917
		c9.585,1.405,19.987,2.786,31.006,4.048c11.02,1.256,22.65,2.445,34.698,3.387c24.092,1.877,49.842,2.986,75.518,2.479
		c12.835-0.266,25.644-1.043,38.173-2.292c12.527-1.273,24.785-2.879,36.551-4.811c11.778-1.867,23.069-4.076,33.675-6.567
		c10.6-2.515,20.492-5.383,29.478-8.471c8.979-3.1,17.093-6.342,24.085-9.675c1.777-0.781,3.424-1.669,5.059-2.457
		c0.813-0.403,1.612-0.798,2.396-1.186c0.767-0.417,1.519-0.827,2.256-1.228c1.486-0.794,2.911-1.556,4.273-2.284
		c1.332-0.783,2.601-1.529,3.807-2.238c2.435-1.395,4.535-2.755,6.379-3.93c0.922-0.59,1.776-1.136,2.558-1.636
		c0.764-0.527,1.458-1.006,2.079-1.435c2.508-1.711,3.846-2.623,3.846-2.623l0.866,0.97c0,0-1.127,1.185-3.24,3.406
		c-0.534,0.554-1.13,1.173-1.787,1.854c-0.69,0.644-1.444,1.347-2.258,2.106c-1.638,1.513-3.492,3.308-5.748,5.091
		c-4.36,3.785-10.058,7.874-16.829,12.253c-1.708,1.066-3.485,2.149-5.327,3.246c-1.874,1.037-3.802,2.104-5.781,3.199
		c-3.994,2.12-8.241,4.289-12.792,6.273c-9.065,4.058-19.181,7.789-30.088,10.966c-10.898,3.209-22.601,5.804-34.792,7.743
		c-12.203,1.887-24.899,3.007-37.786,3.581c-12.888,0.583-25.967,0.724-39.019,0.546c-13.053-0.189-26.08-0.776-38.87-1.667
		c-12.792-0.863-25.337-2.154-37.44-3.61c-12.101-1.475-23.769-3.085-34.783-4.908c-11.016-1.802-21.395-3.693-30.946-5.566
		c-19.098-3.778-34.9-7.411-45.891-10.236c-10.998-2.794-17.223-4.633-17.223-4.633L205.166,95.372z"/>
</g>
</svg>
